{"asset":{"version":"2.0","generator":"Blockbench 4.12.5 glTF exporter"},"scenes":[{"nodes":[21],"name":"blockbench_export"}],"scene":0,"nodes":[{"translation":[0,-1.25,0],"name":"cube","mesh":0},{"translation":[0,-2.5,-9.375],"name":"cube","mesh":1},{"translation":[0,-2.5,9.375],"name":"cube","mesh":2},{"translation":[0,-5,0],"name":"cube","mesh":3},{"rotation":[-0.7071067811865475,0,0,0.7071067811865476],"translation":[0,3.75,-1.875],"name":"cylinder","mesh":4},{"translation":[-0.625,-0.625,1.875],"name":"cube","mesh":5},{"translation":[-0.625,-3.125,-5],"name":"cube","mesh":6},{"translation":[0,-0.625,0],"name":"cube","mesh":7},{"translation":[-3.75,-0.625,0.625],"name":"cube","mesh":8},{"translation":[4.375,-0.625,0.625],"name":"cube","mesh":9},{"rotation":[0,0,0.7071067811865475,0.7071067811865476],"name":"cylinder","mesh":10},{"rotation":[0,0,0.7071067811865475,0.7071067811865476],"translation":[0,0,5],"name":"cylinder","mesh":11},{"rotation":[0,0,0.7071067811865475,0.7071067811865476],"translation":[0,0,10],"name":"cylinder","mesh":12},{"rotation":[0,0,0.7071067811865475,0.7071067811865476],"translation":[6.25,0,10],"name":"cylinder","mesh":13},{"rotation":[0,0,0.7071067811865475,0.7071067811865476],"translation":[6.25,0,5],"name":"cylinder","mesh":14},{"rotation":[0,0,0.7071067811865475,0.7071067811865476],"translation":[6.25,0,0],"name":"cylinder","mesh":15},{"translation":[-0.625,-3.125,-5],"name":"wheels","children":[10,11,12,13,14,15]},{"translation":[-8.75,-4.375,4.53125],"name":"left_connecting_rod","mesh":16},{"translation":[4.375,-0.625,0.625],"name":"left_connecting_rod","children":[17]},{"translation":[-0.625,-4.375,4.53125],"name":"right_connecting_rod","mesh":17},{"translation":[4.375,-0.625,0.625],"name":"right_connecting_rod","children":[19]},{"children":[0,1,2,3,4,5,6,7,8,9,16,18,20]}],"bufferViews":[{"buffer":0,"byteOffset":0,"byteLength":288,"target":34962,"byteStride":12},{"buffer":0,"byteOffset":288,"byteLength":288,"target":34962,"byteStride":12},{"buffer":0,"byteOffset":576,"byteLength":192,"target":34962,"byteStride":8},{"buffer":0,"byteOffset":768,"byteLength":72,"target":34963},{"buffer":0,"byteOffset":840,"byteLength":288,"target":34962,"byteStride":12},{"buffer":0,"byteOffset":1128,"byteLength":288,"target":34962,"byteStride":12},{"buffer":0,"byteOffset":1416,"byteLength":192,"target":34962,"byteStride":8},{"buffer":0,"byteOffset":1608,"byteLength":72,"target":34963},{"buffer":0,"byteOffset":1680,"byteLength":288,"target":34962,"byteStride":12},{"buffer":0,"byteOffset":1968,"byteLength":288,"target":34962,"byteStride":12},{"buffer":0,"byteOffset":2256,"byteLength":192,"target":34962,"byteStride":8},{"buffer":0,"byteOffset":2448,"byteLength":72,"target":34963},{"buffer":0,"byteOffset":2520,"byteLength":288,"target":34962,"byteStride":12},{"buffer":0,"byteOffset":2808,"byteLength":288,"target":34962,"byteStride":12},{"buffer":0,"byteOffset":3096,"byteLength":192,"target":34962,"byteStride":8},{"buffer":0,"byteOffset":3288,"byteLength":72,"target":34963},{"buffer":0,"byteOffset":3360,"byteLength":1440,"target":34962,"byteStride":12},{"buffer":0,"byteOffset":4800,"byteLength":1440,"target":34962,"byteStride":12},{"buffer":0,"byteOffset":6240,"byteLength":960,"target":34962,"byteStride":8},{"buffer":0,"byteOffset":7200,"byteLength":288,"target":34963},{"buffer":0,"byteOffset":7488,"byteLength":288,"target":34962,"byteStride":12},{"buffer":0,"byteOffset":7776,"byteLength":288,"target":34962,"byteStride":12},{"buffer":0,"byteOffset":8064,"byteLength":192,"target":34962,"byteStride":8},{"buffer":0,"byteOffset":8256,"byteLength":72,"target":34963},{"buffer":0,"byteOffset":8328,"byteLength":288,"target":34962,"byteStride":12},{"buffer":0,"byteOffset":8616,"byteLength":288,"target":34962,"byteStride":12},{"buffer":0,"byteOffset":8904,"byteLength":192,"target":34962,"byteStride":8},{"buffer":0,"byteOffset":9096,"byteLength":72,"target":34963},{"buffer":0,"byteOffset":9168,"byteLength":288,"target":34962,"byteStride":12},{"buffer":0,"byteOffset":9456,"byteLength":288,"target":34962,"byteStride":12},{"buffer":0,"byteOffset":9744,"byteLength":192,"target":34962,"byteStride":8},{"buffer":0,"byteOffset":9936,"byteLength":72,"target":34963},{"buffer":0,"byteOffset":10008,"byteLength":288,"target":34962,"byteStride":12},{"buffer":0,"byteOffset":10296,"byteLength":288,"target":34962,"byteStride":12},{"buffer":0,"byteOffset":10584,"byteLength":192,"target":34962,"byteStride":8},{"buffer":0,"byteOffset":10776,"byteLength":72,"target":34963},{"buffer":0,"byteOffset":10848,"byteLength":288,"target":34962,"byteStride":12},{"buffer":0,"byteOffset":11136,"byteLength":288,"target":34962,"byteStride":12},{"buffer":0,"byteOffset":11424,"byteLength":192,"target":34962,"byteStride":8},{"buffer":0,"byteOffset":11616,"byteLength":72,"target":34963},{"buffer":0,"byteOffset":11688,"byteLength":1440,"target":34962,"byteStride":12},{"buffer":0,"byteOffset":13128,"byteLength":1440,"target":34962,"byteStride":12},{"buffer":0,"byteOffset":14568,"byteLength":960,"target":34962,"byteStride":8},{"buffer":0,"byteOffset":15528,"byteLength":288,"target":34963},{"buffer":0,"byteOffset":15816,"byteLength":1440,"target":34962,"byteStride":12},{"buffer":0,"byteOffset":17256,"byteLength":1440,"target":34962,"byteStride":12},{"buffer":0,"byteOffset":18696,"byteLength":960,"target":34962,"byteStride":8},{"buffer":0,"byteOffset":19656,"byteLength":288,"target":34963},{"buffer":0,"byteOffset":19944,"byteLength":1440,"target":34962,"byteStride":12},{"buffer":0,"byteOffset":21384,"byteLength":1440,"target":34962,"byteStride":12},{"buffer":0,"byteOffset":22824,"byteLength":960,"target":34962,"byteStride":8},{"buffer":0,"byteOffset":23784,"byteLength":288,"target":34963},{"buffer":0,"byteOffset":24072,"byteLength":1440,"target":34962,"byteStride":12},{"buffer":0,"byteOffset":25512,"byteLength":1440,"target":34962,"byteStride":12},{"buffer":0,"byteOffset":26952,"byteLength":960,"target":34962,"byteStride":8},{"buffer":0,"byteOffset":27912,"byteLength":288,"target":34963},{"buffer":0,"byteOffset":28200,"byteLength":1440,"target":34962,"byteStride":12},{"buffer":0,"byteOffset":29640,"byteLength":1440,"target":34962,"byteStride":12},{"buffer":0,"byteOffset":31080,"byteLength":960,"target":34962,"byteStride":8},{"buffer":0,"byteOffset":32040,"byteLength":288,"target":34963},{"buffer":0,"byteOffset":32328,"byteLength":1440,"target":34962,"byteStride":12},{"buffer":0,"byteOffset":33768,"byteLength":1440,"target":34962,"byteStride":12},{"buffer":0,"byteOffset":35208,"byteLength":960,"target":34962,"byteStride":8},{"buffer":0,"byteOffset":36168,"byteLength":288,"target":34963},{"buffer":0,"byteOffset":36456,"byteLength":1440,"target":34962,"byteStride":12},{"buffer":0,"byteOffset":37896,"byteLength":1440,"target":34962,"byteStride":12},{"buffer":0,"byteOffset":39336,"byteLength":960,"target":34962,"byteStride":8},{"buffer":0,"byteOffset":40296,"byteLength":360,"target":34963},{"buffer":0,"byteOffset":40656,"byteLength":1440,"target":34962,"byteStride":12},{"buffer":0,"byteOffset":42096,"byteLength":1440,"target":34962,"byteStride":12},{"buffer":0,"byteOffset":43536,"byteLength":960,"target":34962,"byteStride":8},{"buffer":0,"byteOffset":44496,"byteLength":360,"target":34963}],"buffers":[{"byteLength":44856,"uri":"data:application/octet-stream;base64,"}],"accessors":[{"bufferView":0,"componentType":5126,"count":24,"max":[5,0.625,10],"min":[-5,0,-10],"type":"VEC3"},{"bufferView":1,"componentType":5126,"count":24,"max":[1,1,1],"min":[-1,-1,-1],"type":"VEC3"},{"bufferView":2,"componentType":5126,"count":24,"max":[1,1],"min":[0,0],"type":"VEC2"},{"bufferView":3,"componentType":5123,"count":36,"max":[23],"min":[0],"type":"SCALAR"},{"bufferView":4,"componentType":5126,"count":24,"max":[5,1.25,0],"min":[-5,-1.25,-0.625],"type":"VEC3"},{"bufferView":5,"componentType":5126,"count":24,"max":[1,1,1],"min":[-1,-1,-1],"type":"VEC3"},{"bufferView":6,"componentType":5126,"count":24,"max":[1,0.25],"min":[0,0],"type":"VEC2"},{"bufferView":7,"componentType":5123,"count":36,"max":[23],"min":[0],"type":"SCALAR"},{"bufferView":8,"componentType":5126,"count":24,"max":[5,1.25,0.625],"min":[-5,-1.25,0],"type":"VEC3"},{"bufferView":9,"componentType":5126,"count":24,"max":[1,1,1],"min":[-1,-1,-1],"type":"VEC3"},{"bufferView":10,"componentType":5126,"count":24,"max":[1,0.25],"min":[0,0],"type":"VEC2"},{"bufferView":11,"componentType":5123,"count":36,"max":[23],"min":[0],"type":"SCALAR"},{"bufferView":12,"componentType":5126,"count":24,"max":[2.5,3.75,9.375],"min":[-2.5,1.25,-9.375],"type":"VEC3"},{"bufferView":13,"componentType":5126,"count":24,"max":[1,1,1],"min":[-1,-1,-1],"type":"VEC3"},{"bufferView":14,"componentType":5126,"count":24,"max":[1,1],"min":[0,0],"type":"VEC2"},{"bufferView":15,"componentType":5123,"count":36,"max":[23],"min":[0],"type":"SCALAR"},{"bufferView":16,"componentType":5126,"count":120,"max":[3.125,8.125,3.125],"min":[-3.125,-3.125,-3.125],"type":"VEC3"},{"bufferView":17,"componentType":5126,"count":120,"max":[1,1,1],"min":[-1,-1,-1],"type":"VEC3"},{"bufferView":18,"componentType":5126,"count":120,"max":[0.5176382064819336,0.5176382064819336],"min":[0,0],"type":"VEC2"},{"bufferView":19,"componentType":5123,"count":144,"max":[119],"min":[0],"type":"SCALAR"},{"bufferView":20,"componentType":5126,"count":24,"max":[5.625,8.75,0],"min":[-4.375,0,-0.625],"type":"VEC3"},{"bufferView":21,"componentType":5126,"count":24,"max":[1,1,1],"min":[-1,-1,-1],"type":"VEC3"},{"bufferView":22,"componentType":5126,"count":24,"max":[1,0.875],"min":[0,0],"type":"VEC2"},{"bufferView":23,"componentType":5123,"count":36,"max":[23],"min":[0],"type":"SCALAR"},{"bufferView":24,"componentType":5126,"count":24,"max":[0.625,1.25,0.625],"min":[-0.625,0,-0.625],"type":"VEC3"},{"bufferView":25,"componentType":5126,"count":24,"max":[1,1,1],"min":[-1,-1,-1],"type":"VEC3"},{"bufferView":26,"componentType":5126,"count":24,"max":[0.125,0.125],"min":[0,0],"type":"VEC2"},{"bufferView":27,"componentType":5123,"count":36,"max":[23],"min":[0],"type":"SCALAR"},{"bufferView":28,"componentType":5126,"count":24,"max":[3.125,3.546875,1.25],"min":[-3.125,0,-8.125],"type":"VEC3"},{"bufferView":29,"componentType":5126,"count":24,"max":[1,1,1],"min":[-1,-1,-1],"type":"VEC3"},{"bufferView":30,"componentType":5126,"count":24,"max":[0.9375,0.9375],"min":[0,0],"type":"VEC2"},{"bufferView":31,"componentType":5123,"count":36,"max":[23],"min":[0],"type":"SCALAR"},{"bufferView":32,"componentType":5126,"count":24,"max":[0.625,5.21875,0.625],"min":[-1.25,0,-8.75],"type":"VEC3"},{"bufferView":33,"componentType":5126,"count":24,"max":[1,1,1],"min":[-1,-1,-1],"type":"VEC3"},{"bufferView":34,"componentType":5126,"count":24,"max":[0.9375,0.9375],"min":[0,0],"type":"VEC2"},{"bufferView":35,"componentType":5123,"count":36,"max":[23],"min":[0],"type":"SCALAR"},{"bufferView":36,"componentType":5126,"count":24,"max":[0.625,5.21875,0.625],"min":[-1.25,0,-8.75],"type":"VEC3"},{"bufferView":37,"componentType":5126,"count":24,"max":[1,1,1],"min":[-1,-1,-1],"type":"VEC3"},{"bufferView":38,"componentType":5126,"count":24,"max":[0.9375,0.9375],"min":[0,0],"type":"VEC2"},{"bufferView":39,"componentType":5123,"count":36,"max":[23],"min":[0],"type":"SCALAR"},{"bufferView":40,"componentType":5126,"count":120,"max":[1.875,3.125,1.875],"min":[-1.875,1.875,-1.875],"type":"VEC3"},{"bufferView":41,"componentType":5126,"count":120,"max":[1,1,1],"min":[-1,-1,-1],"type":"VEC3"},{"bufferView":42,"componentType":5126,"count":120,"max":[0.5176382064819336,0.5176382064819336],"min":[0,0],"type":"VEC2"},{"bufferView":43,"componentType":5123,"count":144,"max":[119],"min":[0],"type":"SCALAR"},{"bufferView":44,"componentType":5126,"count":120,"max":[1.875,3.125,1.875],"min":[-1.875,1.875,-1.875],"type":"VEC3"},{"bufferView":45,"componentType":5126,"count":120,"max":[1,1,1],"min":[-1,-1,-1],"type":"VEC3"},{"bufferView":46,"componentType":5126,"count":120,"max":[0.5176382064819336,0.5176382064819336],"min":[0,0],"type":"VEC2"},{"bufferView":47,"componentType":5123,"count":144,"max":[119],"min":[0],"type":"SCALAR"},{"bufferView":48,"componentType":5126,"count":120,"max":[1.875,3.125,1.875],"min":[-1.875,1.875,-1.875],"type":"VEC3"},{"bufferView":49,"componentType":5126,"count":120,"max":[1,1,1],"min":[-1,-1,-1],"type":"VEC3"},{"bufferView":50,"componentType":5126,"count":120,"max":[0.5176382064819336,0.5176382064819336],"min":[0,0],"type":"VEC2"},{"bufferView":51,"componentType":5123,"count":144,"max":[119],"min":[0],"type":"SCALAR"},{"bufferView":52,"componentType":5126,"count":120,"max":[1.875,3.125,1.875],"min":[-1.875,1.875,-1.875],"type":"VEC3"},{"bufferView":53,"componentType":5126,"count":120,"max":[1,1,1],"min":[-1,-1,-1],"type":"VEC3"},{"bufferView":54,"componentType":5126,"count":120,"max":[0.5176382064819336,0.5176382064819336],"min":[0,0],"type":"VEC2"},{"bufferView":55,"componentType":5123,"count":144,"max":[119],"min":[0],"type":"SCALAR"},{"bufferView":56,"componentType":5126,"count":120,"max":[1.875,3.125,1.875],"min":[-1.875,1.875,-1.875],"type":"VEC3"},{"bufferView":57,"componentType":5126,"count":120,"max":[1,1,1],"min":[-1,-1,-1],"type":"VEC3"},{"bufferView":58,"componentType":5126,"count":120,"max":[0.5176382064819336,0.5176382064819336],"min":[0,0],"type":"VEC2"},{"bufferView":59,"componentType":5123,"count":144,"max":[119],"min":[0],"type":"SCALAR"},{"bufferView":60,"componentType":5126,"count":120,"max":[1.875,3.125,1.875],"min":[-1.875,1.875,-1.875],"type":"VEC3"},{"bufferView":61,"componentType":5126,"count":120,"max":[1,1,1],"min":[-1,-1,-1],"type":"VEC3"},{"bufferView":62,"componentType":5126,"count":120,"max":[0.5176382064819336,0.5176382064819336],"min":[0,0],"type":"VEC2"},{"bufferView":63,"componentType":5123,"count":144,"max":[119],"min":[0],"type":"SCALAR"},{"bufferView":64,"componentType":5126,"count":120,"max":[0.625,1.25,0.3125],"min":[0,0.3125,-10.625],"type":"VEC3"},{"bufferView":65,"componentType":5126,"count":120,"max":[1,1,1],"min":[-1,-1,-1],"type":"VEC3"},{"bufferView":66,"componentType":5126,"count":120,"max":[0.40625,0.40625],"min":[0,0],"type":"VEC2"},{"bufferView":67,"componentType":5123,"count":180,"max":[119],"min":[0],"type":"SCALAR"},{"bufferView":68,"componentType":5126,"count":120,"max":[0.625,1.25,0.3125],"min":[0,0.3125,-10.625],"type":"VEC3"},{"bufferView":69,"componentType":5126,"count":120,"max":[1,1,1],"min":[-1,-1,-1],"type":"VEC3"},{"bufferView":70,"componentType":5126,"count":120,"max":[0.40625,0.40625],"min":[0,0],"type":"VEC2"},{"bufferView":71,"componentType":5123,"count":180,"max":[119],"min":[0],"type":"SCALAR"}],"materials":[{"pbrMetallicRoughness":{"metallicFactor":0,"roughnessFactor":1},"alphaMode":"MASK","alphaCutoff":0.05,"doubleSided":true},{"pbrMetallicRoughness":{"metallicFactor":0,"roughnessFactor":1},"alphaMode":"MASK","alphaCutoff":0.05,"doubleSided":true},{"pbrMetallicRoughness":{"metallicFactor":0,"roughnessFactor":1},"alphaMode":"MASK","alphaCutoff":0.05,"doubleSided":true},{"pbrMetallicRoughness":{"metallicFactor":0,"roughnessFactor":1},"alphaMode":"MASK","alphaCutoff":0.05,"doubleSided":true},{"pbrMetallicRoughness":{"metallicFactor":0,"roughnessFactor":1},"alphaMode":"MASK","alphaCutoff":0.05,"doubleSided":true},{"pbrMetallicRoughness":{"metallicFactor":0,"roughnessFactor":1},"alphaMode":"MASK","alphaCutoff":0.05,"doubleSided":true},{"pbrMetallicRoughness":{"metallicFactor":0,"roughnessFactor":1},"alphaMode":"MASK","alphaCutoff":0.05,"doubleSided":true}],"meshes":[{"primitives":[{"mode":4,"attributes":{"POSITION":0,"NORMAL":1,"TEXCOORD_0":2},"indices":3,"material":0}]},{"primitives":[{"mode":4,"attributes":{"POSITION":4,"NORMAL":5,"TEXCOORD_0":6},"indices":7,"material":1}]},{"primitives":[{"mode":4,"attributes":{"POSITION":8,"NORMAL":9,"TEXCOORD_0":10},"indices":11,"material":1}]},{"primitives":[{"mode":4,"attributes":{"POSITION":12,"NORMAL":13,"TEXCOORD_0":14},"indices":15,"material":1}]},{"primitives":[{"mode":4,"attributes":{"POSITION":16,"NORMAL":17,"TEXCOORD_0":18},"indices":19,"material":2}]},{"primitives":[{"mode":4,"attributes":{"POSITION":20,"NORMAL":21,"TEXCOORD_0":22},"indices":23,"material":3}]},{"primitives":[{"mode":4,"attributes":{"POSITION":24,"NORMAL":25,"TEXCOORD_0":26},"indices":27,"material":4}]},{"primitives":[{"mode":4,"attributes":{"POSITION":28,"NORMAL":29,"TEXCOORD_0":30},"indices":31,"material":3}]},{"primitives":[{"mode":4,"attributes":{"POSITION":32,"NORMAL":33,"TEXCOORD_0":34},"indices":35,"material":5}]},{"primitives":[{"mode":4,"attributes":{"POSITION":36,"NORMAL":37,"TEXCOORD_0":38},"indices":39,"material":5}]},{"primitives":[{"mode":4,"attributes":{"POSITION":40,"NORMAL":41,"TEXCOORD_0":42},"indices":43,"material":6}]},{"primitives":[{"mode":4,"attributes":{"POSITION":44,"NORMAL":45,"TEXCOORD_0":46},"indices":47,"material":6}]},{"primitives":[{"mode":4,"attributes":{"POSITION":48,"NORMAL":49,"TEXCOORD_0":50},"indices":51,"material":6}]},{"primitives":[{"mode":4,"attributes":{"POSITION":52,"NORMAL":53,"TEXCOORD_0":54},"indices":55,"material":6}]},{"primitives":[{"mode":4,"attributes":{"POSITION":56,"NORMAL":57,"TEXCOORD_0":58},"indices":59,"material":6}]},{"primitives":[{"mode":4,"attributes":{"POSITION":60,"NORMAL":61,"TEXCOORD_0":62},"indices":63,"material":6}]},{"primitives":[{"mode":4,"attributes":{"POSITION":64,"NORMAL":65,"TEXCOORD_0":66},"indices":67,"material":2}]},{"primitives":[{"mode":4,"attributes":{"POSITION":68,"NORMAL":69,"TEXCOORD_0":70},"indices":71,"material":2}]}]}