{"asset":{"version":"2.0","generator":"Blockbench 4.12.5 glTF exporter"},"scenes":[{"nodes":[5],"name":"blockbench_export"}],"scene":0,"nodes":[{"rotation":[0.7071067811865475,0,0,0.7071067811865476],"translation":[0,9.3125,-2.5],"name":"cylinder","mesh":0},{"rotation":[0,0,0.7071067811865475,0.7071067811865476],"translation":[-0.625,0,0],"name":"cylinder","mesh":1},{"translation":[0,-3.125,5.625],"name":"rear_wheels","children":[1]},{"rotation":[0,0,0.7071067811865475,0.7071067811865476],"translation":[5.625,0,0],"name":"cylinder","mesh":2},{"translation":[0,-3.125,-5.625],"name":"front_wheels","children":[3]},{"children":[0,2,4]}],"bufferViews":[{"buffer":0,"byteOffset":0,"byteLength":4296,"target":34962,"byteStride":12},{"buffer":0,"byteOffset":4296,"byteLength":4296,"target":34962,"byteStride":12},{"buffer":0,"byteOffset":8592,"byteLength":2864,"target":34962,"byteStride":8},{"buffer":0,"byteOffset":11456,"byteLength":1044,"target":34963},{"buffer":0,"byteOffset":12500,"byteLength":2880,"target":34962,"byteStride":12},{"buffer":0,"byteOffset":15380,"byteLength":2880,"target":34962,"byteStride":12},{"buffer":0,"byteOffset":18260,"byteLength":1920,"target":34962,"byteStride":8},{"buffer":0,"byteOffset":20180,"byteLength":576,"target":34963},{"buffer":0,"byteOffset":20756,"byteLength":2880,"target":34962,"byteStride":12},{"buffer":0,"byteOffset":23636,"byteLength":2880,"target":34962,"byteStride":12},{"buffer":0,"byteOffset":26516,"byteLength":1920,"target":34962,"byteStride":8},{"buffer":0,"byteOffset":28436,"byteLength":576,"target":34963},{"buffer":0,"byteOffset":29012,"byteLength":16},{"buffer":0,"byteOffset":29028,"byteLength":64},{"buffer":0,"byteOffset":29092,"byteLength":16},{"buffer":0,"byteOffset":29108,"byteLength":64}],"buffers":[{"byteLength":29172,"uri":"data:application/octet-stream;base64,"}],"accessors":[{"bufferView":0,"componentType":5126,"count":358,"max":[5,13.75,13.0625],"min":[-5,-8.75,-4.375],"type":"VEC3"},{"bufferView":1,"componentType":5126,"count":358,"max":[1,1,1],"min":[-1,-1,-1],"type":"VEC3"},{"bufferView":2,"componentType":5126,"count":358,"max":[0.640625,0.578125],"min":[0,0],"type":"VEC2"},{"bufferView":3,"componentType":5123,"count":522,"max":[357],"min":[0],"type":"SCALAR"},{"bufferView":4,"componentType":5126,"count":240,"max":[1.875,3.125,1.875],"min":[-1.875,-4.375,-1.875],"type":"VEC3"},{"bufferView":5,"componentType":5126,"count":240,"max":[1,1,1],"min":[-1,-1,-1],"type":"VEC3"},{"bufferView":6,"componentType":5126,"count":240,"max":[0.5539953112602234,0.546875],"min":[0.11006718873977661,0],"type":"VEC2"},{"bufferView":7,"componentType":5123,"count":288,"max":[239],"min":[0],"type":"SCALAR"},{"bufferView":8,"componentType":5126,"count":240,"max":[1.875,9.375,1.875],"min":[-1.875,1.875,-1.875],"type":"VEC3"},{"bufferView":9,"componentType":5126,"count":240,"max":[1,1,1],"min":[-1,-1,-1],"type":"VEC3"},{"bufferView":10,"componentType":5126,"count":240,"max":[0.5774328112602234,0.5546875],"min":[0.2038171887397766,0.109375],"type":"VEC2"},{"bufferView":11,"componentType":5123,"count":288,"max":[239],"min":[0],"type":"SCALAR"},{"bufferView":12,"componentType":5126,"count":4,"max":[1],"min":[0],"type":"SCALAR"},{"bufferView":13,"componentType":5126,"count":4,"max":[0,0,0,1],"min":[-0.8660253882408142,0,0,-1],"type":"VEC4"},{"bufferView":14,"componentType":5126,"count":4,"max":[1],"min":[0],"type":"SCALAR"},{"bufferView":15,"componentType":5126,"count":4,"max":[0,0,0,1],"min":[-0.8660253882408142,0,0,-1],"type":"VEC4"}],"materials":[{"pbrMetallicRoughness":{"metallicFactor":0,"roughnessFactor":1,"baseColorTexture":{"index":0}},"alphaMode":"MASK","alphaCutoff":0.05,"doubleSided":true}],"textures":[{"sampler":0,"source":0,"name":"goods_van.png"}],"samplers":[{"magFilter":9728,"minFilter":9728,"wrapS":33071,"wrapT":33071}],"images":[{"mimeType":"image/png","name":"goods_van.png","uri":"goods_van.png"}],"meshes":[{"primitives":[{"mode":4,"attributes":{"POSITION":0,"NORMAL":1,"TEXCOORD_0":2},"indices":3,"material":0}]},{"primitives":[{"mode":4,"attributes":{"POSITION":4,"NORMAL":5,"TEXCOORD_0":6},"indices":7,"material":0}]},{"primitives":[{"mode":4,"attributes":{"POSITION":8,"NORMAL":9,"TEXCOORD_0":10},"indices":11,"material":0}]}],"animations":[{"name":"animation","samplers":[{"input":12,"output":13,"interpolation":"LINEAR"},{"input":14,"output":15,"interpolation":"LINEAR"}],"channels":[{"sampler":0,"target":{"node":2,"path":"rotation"}},{"sampler":1,"target":{"node":4,"path":"rotation"}}]}]}