{"asset":{"version":"2.0","generator":"Blockbench 4.12.5 glTF exporter"},"scenes":[{"nodes":[1],"name":"blockbench_export"}],"scene":0,"nodes":[{"rotation":[0,0,0.7071067811865475,0.7071067811865476],"translation":[5.625,-4.375,4.375],"name":"cylinder","mesh":0},{"children":[0]}],"bufferViews":[{"buffer":0,"byteOffset":0,"byteLength":7200,"target":34962,"byteStride":12},{"buffer":0,"byteOffset":7200,"byteLength":7200,"target":34962,"byteStride":12},{"buffer":0,"byteOffset":14400,"byteLength":4800,"target":34962,"byteStride":8},{"buffer":0,"byteOffset":19200,"byteLength":1512,"target":34963}],"buffers":[{"byteLength":20712,"uri":"data:application/octet-stream;base64,"}],"accessors":[{"bufferView":0,"componentType":5126,"count":600,"max":[6.875,10.625,1.875],"min":[-0.625,0.625,-10.625],"type":"VEC3"},{"bufferView":1,"componentType":5126,"count":600,"max":[1,1,1],"min":[-1,-1,-1],"type":"VEC3"},{"bufferView":2,"componentType":5126,"count":600,"max":[0.984375,0.953125],"min":[0,0],"type":"VEC2"},{"bufferView":3,"componentType":5123,"count":756,"max":[599],"min":[0],"type":"SCALAR"}],"materials":[{"pbrMetallicRoughness":{"metallicFactor":0,"roughnessFactor":1,"baseColorTexture":{"index":0}},"alphaMode":"MASK","alphaCutoff":0.05,"doubleSided":true}],"textures":[{"sampler":0,"source":0,"name":"simple_minecart"}],"samplers":[{"magFilter":9728,"minFilter":9728,"wrapS":33071,"wrapT":33071}],"images":[{"mimeType":"image/png","name":"simple_minecart.png","uri":"simple_minecart.png"}],"meshes":[{"primitives":[{"mode":4,"attributes":{"POSITION":0,"NORMAL":1,"TEXCOORD_0":2},"indices":3,"material":0}]}]}