{"asset":{"version":"2.0","generator":"Blockbench 4.12.5 glTF exporter"},"scenes":[{"nodes":[13],"name":"blockbench_export"}],"scene":0,"nodes":[{"rotation":[-0.7071067811865475,0,0,0.7071067811865476],"translation":[0,5.625,0.625],"name":"cylinder","mesh":0},{"translation":[0,0.9375,0],"name":"cuboid","mesh":1},{"translation":[10,0,0],"name":"cuboid","mesh":2},{"rotation":[0,0,-0.7071067811865475,0.7071067811865476],"translation":[-7.5,1.5625,-3.75],"name":"wheel","mesh":3},{"rotation":[0,0,-0.7071067811865475,0.7071067811865476],"translation":[-2.5,1.5625,-3.75],"name":"wheel","mesh":4},{"rotation":[0,0,-0.7071067811865475,0.7071067811865476],"translation":[-7.5,1.5625,0],"name":"wheel","mesh":5},{"rotation":[0,0,-0.7071067811865475,0.7071067811865476],"translation":[-2.5,1.5625,0],"name":"wheel","mesh":6},{"rotation":[0,0,-0.7071067811865475,0.7071067811865476],"translation":[-7.5,1.5625,3.75],"name":"wheel","mesh":7},{"rotation":[0,0,-0.7071067811865475,0.7071067811865476],"translation":[-2.5,1.5625,3.75],"name":"wheel","mesh":8},{"translation":[0,1.25,1.5625],"name":"cuboid","mesh":9},{"rotation":[0,-0.7071067811865475,0,0.7071067811865476],"translation":[2.8125,1.25,4.0625],"name":"cuboid","mesh":10},{"rotation":[0,-0.7071067811865475,0,0.7071067811865476],"translation":[-2.8125,1.25,4.0625],"name":"cuboid","mesh":11},{"rotation":[0.49999999128165473,-0.4999999904855944,0.5000000087183462,0.5000000095144044],"translation":[5,9.0625,3.75],"name":"cuboid","mesh":12},{"children":[0,1,2,3,4,5,6,7,8,9,10,11,12]}],"bufferViews":[{"buffer":0,"byteOffset":0,"byteLength":1440,"target":34962,"byteStride":12},{"buffer":0,"byteOffset":1440,"byteLength":1440,"target":34962,"byteStride":12},{"buffer":0,"byteOffset":2880,"byteLength":960,"target":34962,"byteStride":8},{"buffer":0,"byteOffset":3840,"byteLength":288,"target":34963},{"buffer":0,"byteOffset":4128,"byteLength":288,"target":34962,"byteStride":12},{"buffer":0,"byteOffset":4416,"byteLength":288,"target":34962,"byteStride":12},{"buffer":0,"byteOffset":4704,"byteLength":192,"target":34962,"byteStride":8},{"buffer":0,"byteOffset":4896,"byteLength":72,"target":34963},{"buffer":0,"byteOffset":4968,"byteLength":288,"target":34962,"byteStride":12},{"buffer":0,"byteOffset":5256,"byteLength":288,"target":34962,"byteStride":12},{"buffer":0,"byteOffset":5544,"byteLength":192,"target":34962,"byteStride":8},{"buffer":0,"byteOffset":5736,"byteLength":72,"target":34963},{"buffer":0,"byteOffset":5808,"byteLength":1440,"target":34962,"byteStride":12},{"buffer":0,"byteOffset":7248,"byteLength":1440,"target":34962,"byteStride":12},{"buffer":0,"byteOffset":8688,"byteLength":960,"target":34962,"byteStride":8},{"buffer":0,"byteOffset":9648,"byteLength":288,"target":34963},{"buffer":0,"byteOffset":9936,"byteLength":1440,"target":34962,"byteStride":12},{"buffer":0,"byteOffset":11376,"byteLength":1440,"target":34962,"byteStride":12},{"buffer":0,"byteOffset":12816,"byteLength":960,"target":34962,"byteStride":8},{"buffer":0,"byteOffset":13776,"byteLength":288,"target":34963},{"buffer":0,"byteOffset":14064,"byteLength":1440,"target":34962,"byteStride":12},{"buffer":0,"byteOffset":15504,"byteLength":1440,"target":34962,"byteStride":12},{"buffer":0,"byteOffset":16944,"byteLength":960,"target":34962,"byteStride":8},{"buffer":0,"byteOffset":17904,"byteLength":288,"target":34963},{"buffer":0,"byteOffset":18192,"byteLength":1440,"target":34962,"byteStride":12},{"buffer":0,"byteOffset":19632,"byteLength":1440,"target":34962,"byteStride":12},{"buffer":0,"byteOffset":21072,"byteLength":960,"target":34962,"byteStride":8},{"buffer":0,"byteOffset":22032,"byteLength":288,"target":34963},{"buffer":0,"byteOffset":22320,"byteLength":1440,"target":34962,"byteStride":12},{"buffer":0,"byteOffset":23760,"byteLength":1440,"target":34962,"byteStride":12},{"buffer":0,"byteOffset":25200,"byteLength":960,"target":34962,"byteStride":8},{"buffer":0,"byteOffset":26160,"byteLength":288,"target":34963},{"buffer":0,"byteOffset":26448,"byteLength":1440,"target":34962,"byteStride":12},{"buffer":0,"byteOffset":27888,"byteLength":1440,"target":34962,"byteStride":12},{"buffer":0,"byteOffset":29328,"byteLength":960,"target":34962,"byteStride":8},{"buffer":0,"byteOffset":30288,"byteLength":288,"target":34963},{"buffer":0,"byteOffset":30576,"byteLength":288,"target":34962,"byteStride":12},{"buffer":0,"byteOffset":30864,"byteLength":288,"target":34962,"byteStride":12},{"buffer":0,"byteOffset":31152,"byteLength":192,"target":34962,"byteStride":8},{"buffer":0,"byteOffset":31344,"byteLength":72,"target":34963},{"buffer":0,"byteOffset":31416,"byteLength":288,"target":34962,"byteStride":12},{"buffer":0,"byteOffset":31704,"byteLength":288,"target":34962,"byteStride":12},{"buffer":0,"byteOffset":31992,"byteLength":192,"target":34962,"byteStride":8},{"buffer":0,"byteOffset":32184,"byteLength":72,"target":34963},{"buffer":0,"byteOffset":32256,"byteLength":288,"target":34962,"byteStride":12},{"buffer":0,"byteOffset":32544,"byteLength":288,"target":34962,"byteStride":12},{"buffer":0,"byteOffset":32832,"byteLength":192,"target":34962,"byteStride":8},{"buffer":0,"byteOffset":33024,"byteLength":72,"target":34963},{"buffer":0,"byteOffset":33096,"byteLength":288,"target":34962,"byteStride":12},{"buffer":0,"byteOffset":33384,"byteLength":288,"target":34962,"byteStride":12},{"buffer":0,"byteOffset":33672,"byteLength":192,"target":34962,"byteStride":8},{"buffer":0,"byteOffset":33864,"byteLength":72,"target":34963}],"buffers":[{"byteLength":33936,"uri":"data:application/octet-stream;base64,"}],"accessors":[{"bufferView":0,"componentType":5126,"count":120,"max":[1.875,5.625,1.875],"min":[-1.875,-0.625,-1.875],"type":"VEC3"},{"bufferView":1,"componentType":5126,"count":120,"max":[1,1,1],"min":[-1,-1,-1],"type":"VEC3"},{"bufferView":2,"componentType":5126,"count":120,"max":[0.609375,0.65625],"min":[0.0013828125083819032,0],"type":"VEC2"},{"bufferView":3,"componentType":5123,"count":144,"max":[119],"min":[0],"type":"SCALAR"},{"bufferView":4,"componentType":5126,"count":24,"max":[3.125,2.8125,6.25],"min":[-3.125,2.1875,-6.25],"type":"VEC3"},{"bufferView":5,"componentType":5126,"count":24,"max":[1,1,1],"min":[-1,-1,-1],"type":"VEC3"},{"bufferView":6,"componentType":5126,"count":24,"max":[0.90625,0.3125],"min":[0,0],"type":"VEC2"},{"bufferView":7,"componentType":5123,"count":36,"max":[23],"min":[0],"type":"SCALAR"},{"bufferView":8,"componentType":5126,"count":24,"max":[5,10,5],"min":[-5,0,-5],"type":"VEC3"},{"bufferView":9,"componentType":5126,"count":24,"max":[1,1,1],"min":[-1,-1,-1],"type":"VEC3"},{"bufferView":10,"componentType":5126,"count":24,"max":[0.25,0.25],"min":[0,0],"type":"VEC2"},{"bufferView":11,"componentType":5123,"count":36,"max":[23],"min":[0],"type":"SCALAR"},{"bufferView":12,"componentType":5126,"count":120,"max":[1.5625,5.3125,1.5625],"min":[-1.5625,4.6875,-1.5625],"type":"VEC3"},{"bufferView":13,"componentType":5126,"count":120,"max":[1,1,1],"min":[-1,-1,-1],"type":"VEC3"},{"bufferView":14,"componentType":5126,"count":120,"max":[0.7696828246116638,0.640625],"min":[0.3475046753883362,0.28125],"type":"VEC2"},{"bufferView":15,"componentType":5123,"count":144,"max":[119],"min":[0],"type":"SCALAR"},{"bufferView":16,"componentType":5126,"count":120,"max":[1.5625,5.3125,1.5625],"min":[-1.5625,4.6875,-1.5625],"type":"VEC3"},{"bufferView":17,"componentType":5126,"count":120,"max":[1,1,1],"min":[-1,-1,-1],"type":"VEC3"},{"bufferView":18,"componentType":5126,"count":120,"max":[0.7696828246116638,0.6875],"min":[0.578125,0.375],"type":"VEC2"},{"bufferView":19,"componentType":5123,"count":144,"max":[119],"min":[0],"type":"SCALAR"},{"bufferView":20,"componentType":5126,"count":120,"max":[1.5625,5.3125,1.5625],"min":[-1.5625,4.6875,-1.5625],"type":"VEC3"},{"bufferView":21,"componentType":5126,"count":120,"max":[1,1,1],"min":[-1,-1,-1],"type":"VEC3"},{"bufferView":22,"componentType":5126,"count":120,"max":[0.7853078246116638,0.71875],"min":[0.578125,0],"type":"VEC2"},{"bufferView":23,"componentType":5123,"count":144,"max":[119],"min":[0],"type":"SCALAR"},{"bufferView":24,"componentType":5126,"count":120,"max":[1.5625,5.3125,1.5625],"min":[-1.5625,4.6875,-1.5625],"type":"VEC3"},{"bufferView":25,"componentType":5126,"count":120,"max":[1,1,1],"min":[-1,-1,-1],"type":"VEC3"},{"bufferView":26,"componentType":5126,"count":120,"max":[0.7384328246116638,0.765625],"min":[0.28125,0],"type":"VEC2"},{"bufferView":27,"componentType":5123,"count":144,"max":[119],"min":[0],"type":"SCALAR"},{"bufferView":28,"componentType":5126,"count":120,"max":[1.5625,5.3125,1.5625],"min":[-1.5625,4.6875,-1.5625],"type":"VEC3"},{"bufferView":29,"componentType":5126,"count":120,"max":[1,1,1],"min":[-1,-1,-1],"type":"VEC3"},{"bufferView":30,"componentType":5126,"count":120,"max":[0.7228078246116638,0.78125],"min":[0.0037546874955296516,0.65625],"type":"VEC2"},{"bufferView":31,"componentType":5123,"count":144,"max":[119],"min":[0],"type":"SCALAR"},{"bufferView":32,"componentType":5126,"count":120,"max":[1.5625,5.3125,1.5625],"min":[-1.5625,4.6875,-1.5625],"type":"VEC3"},{"bufferView":33,"componentType":5126,"count":120,"max":[1,1,1],"min":[-1,-1,-1],"type":"VEC3"},{"bufferView":34,"componentType":5126,"count":120,"max":[0.8321828246116638,0.796875],"min":[0,0.671875],"type":"VEC2"},{"bufferView":35,"componentType":5123,"count":144,"max":[119],"min":[0],"type":"SCALAR"},{"bufferView":36,"componentType":5126,"count":24,"max":[3.125,7.5,0.3125],"min":[-3.125,2.5,-0.3125],"type":"VEC3"},{"bufferView":37,"componentType":5126,"count":24,"max":[1,1,1],"min":[-1,-1,-1],"type":"VEC3"},{"bufferView":38,"componentType":5126,"count":24,"max":[0.828125,0.796875],"min":[0.25,0],"type":"VEC2"},{"bufferView":39,"componentType":5123,"count":36,"max":[23],"min":[0],"type":"SCALAR"},{"bufferView":40,"componentType":5126,"count":24,"max":[2.1875,7.5,0.3125],"min":[-2.1875,2.5,-0.3125],"type":"VEC3"},{"bufferView":41,"componentType":5126,"count":24,"max":[1,1,1],"min":[-1,-1,-1],"type":"VEC3"},{"bufferView":42,"componentType":5126,"count":24,"max":[0.796875,0.796875],"min":[0.34375,0.09375],"type":"VEC2"},{"bufferView":43,"componentType":5123,"count":36,"max":[23],"min":[0],"type":"SCALAR"},{"bufferView":44,"componentType":5126,"count":24,"max":[2.1875,7.5,0.3125],"min":[-2.1875,2.5,-0.3125],"type":"VEC3"},{"bufferView":45,"componentType":5126,"count":24,"max":[1,1,1],"min":[-1,-1,-1],"type":"VEC3"},{"bufferView":46,"componentType":5126,"count":24,"max":[0.8125,0.71875],"min":[0.453125,0.140625],"type":"VEC2"},{"bufferView":47,"componentType":5123,"count":36,"max":[23],"min":[0],"type":"SCALAR"},{"bufferView":48,"componentType":5126,"count":24,"max":[2.5,8.125,0.3125],"min":[-2.5,1.875,-0.3125],"type":"VEC3"},{"bufferView":49,"componentType":5126,"count":24,"max":[1,1,1],"min":[-1,-1,-1],"type":"VEC3"},{"bufferView":50,"componentType":5126,"count":24,"max":[0.796875,0.828125],"min":[0,0.328125],"type":"VEC2"},{"bufferView":51,"componentType":5123,"count":36,"max":[23],"min":[0],"type":"SCALAR"}],"materials":[{"pbrMetallicRoughness":{"metallicFactor":0,"roughnessFactor":1,"baseColorTexture":{"index":0}},"alphaMode":"MASK","alphaCutoff":0.05,"doubleSided":true},{"pbrMetallicRoughness":{"metallicFactor":0,"roughnessFactor":1},"alphaMode":"MASK","alphaCutoff":0.05,"doubleSided":true}],"textures":[{"sampler":0,"source":0,"name":"test_train"}],"samplers":[{"magFilter":9728,"minFilter":9728,"wrapS":33071,"wrapT":33071}],"images":[{"mimeType":"image/png","name":"test_train.png","uri":"test_train.png"}],"meshes":[{"primitives":[{"mode":4,"attributes":{"POSITION":0,"NORMAL":1,"TEXCOORD_0":2},"indices":3,"material":0}]},{"primitives":[{"mode":4,"attributes":{"POSITION":4,"NORMAL":5,"TEXCOORD_0":6},"indices":7,"material":0}]},{"primitives":[{"mode":4,"attributes":{"POSITION":8,"NORMAL":9,"TEXCOORD_0":10},"indices":11,"material":1}]},{"primitives":[{"mode":4,"attributes":{"POSITION":12,"NORMAL":13,"TEXCOORD_0":14},"indices":15,"material":0}]},{"primitives":[{"mode":4,"attributes":{"POSITION":16,"NORMAL":17,"TEXCOORD_0":18},"indices":19,"material":0}]},{"primitives":[{"mode":4,"attributes":{"POSITION":20,"NORMAL":21,"TEXCOORD_0":22},"indices":23,"material":0}]},{"primitives":[{"mode":4,"attributes":{"POSITION":24,"NORMAL":25,"TEXCOORD_0":26},"indices":27,"material":0}]},{"primitives":[{"mode":4,"attributes":{"POSITION":28,"NORMAL":29,"TEXCOORD_0":30},"indices":31,"material":0}]},{"primitives":[{"mode":4,"attributes":{"POSITION":32,"NORMAL":33,"TEXCOORD_0":34},"indices":35,"material":0}]},{"primitives":[{"mode":4,"attributes":{"POSITION":36,"NORMAL":37,"TEXCOORD_0":38},"indices":39,"material":0}]},{"primitives":[{"mode":4,"attributes":{"POSITION":40,"NORMAL":41,"TEXCOORD_0":42},"indices":43,"material":0}]},{"primitives":[{"mode":4,"attributes":{"POSITION":44,"NORMAL":45,"TEXCOORD_0":46},"indices":47,"material":0}]},{"primitives":[{"mode":4,"attributes":{"POSITION":48,"NORMAL":49,"TEXCOORD_0":50},"indices":51,"material":0}]}]}