{"asset":{"version":"2.0","generator":"Blockbench 4.12.5 glTF exporter"},"scenes":[{"nodes":[12],"name":"blockbench_export"}],"scene":0,"nodes":[{"rotation":[-0.7071067811865475,0,0,0.7071067811865476],"translation":[0,0.625,0.625],"name":"cylinder","mesh":0},{"translation":[0,-4.0625,0],"name":"cuboid","mesh":1},{"rotation":[0,0,-0.7071067811865475,0.7071067811865476],"translation":[-7.65625,-3.4375,-3.75],"name":"wheel","mesh":2},{"rotation":[0,0,-0.7071067811865475,0.7071067811865476],"translation":[-2.34375,-3.4375,-3.75],"name":"wheel","mesh":3},{"rotation":[0,0,-0.7071067811865475,0.7071067811865476],"translation":[-7.65625,-3.4375,0],"name":"wheel","mesh":4},{"rotation":[0,0,-0.7071067811865475,0.7071067811865476],"translation":[-2.34375,-3.4375,0],"name":"wheel","mesh":5},{"rotation":[0,0,-0.7071067811865475,0.7071067811865476],"translation":[-7.65625,-3.4375,3.75],"name":"wheel","mesh":6},{"rotation":[0,0,-0.7071067811865475,0.7071067811865476],"translation":[-2.34375,-3.4375,3.75],"name":"wheel","mesh":7},{"translation":[0,-3.75,1.5625],"name":"cuboid","mesh":8},{"rotation":[0,-0.7071067811865475,0,0.7071067811865476],"translation":[2.8125,-3.75,4.0625],"name":"cuboid","mesh":9},{"rotation":[0,-0.7071067811865475,0,0.7071067811865476],"translation":[-2.8125,-3.75,4.0625],"name":"cuboid","mesh":10},{"rotation":[0.5,-0.4999999999999999,0.5,0.5000000000000001],"translation":[5,4.0625,3.75],"name":"cuboid","mesh":11},{"children":[0,1,2,3,4,5,6,7,8,9,10,11]}],"bufferViews":[{"buffer":0,"byteOffset":0,"byteLength":1440,"target":34962,"byteStride":12},{"buffer":0,"byteOffset":1440,"byteLength":1440,"target":34962,"byteStride":12},{"buffer":0,"byteOffset":2880,"byteLength":960,"target":34962,"byteStride":8},{"buffer":0,"byteOffset":3840,"byteLength":288,"target":34963},{"buffer":0,"byteOffset":4128,"byteLength":288,"target":34962,"byteStride":12},{"buffer":0,"byteOffset":4416,"byteLength":288,"target":34962,"byteStride":12},{"buffer":0,"byteOffset":4704,"byteLength":192,"target":34962,"byteStride":8},{"buffer":0,"byteOffset":4896,"byteLength":72,"target":34963},{"buffer":0,"byteOffset":4968,"byteLength":1440,"target":34962,"byteStride":12},{"buffer":0,"byteOffset":6408,"byteLength":1440,"target":34962,"byteStride":12},{"buffer":0,"byteOffset":7848,"byteLength":960,"target":34962,"byteStride":8},{"buffer":0,"byteOffset":8808,"byteLength":288,"target":34963},{"buffer":0,"byteOffset":9096,"byteLength":1440,"target":34962,"byteStride":12},{"buffer":0,"byteOffset":10536,"byteLength":1440,"target":34962,"byteStride":12},{"buffer":0,"byteOffset":11976,"byteLength":960,"target":34962,"byteStride":8},{"buffer":0,"byteOffset":12936,"byteLength":288,"target":34963},{"buffer":0,"byteOffset":13224,"byteLength":1440,"target":34962,"byteStride":12},{"buffer":0,"byteOffset":14664,"byteLength":1440,"target":34962,"byteStride":12},{"buffer":0,"byteOffset":16104,"byteLength":960,"target":34962,"byteStride":8},{"buffer":0,"byteOffset":17064,"byteLength":288,"target":34963},{"buffer":0,"byteOffset":17352,"byteLength":1440,"target":34962,"byteStride":12},{"buffer":0,"byteOffset":18792,"byteLength":1440,"target":34962,"byteStride":12},{"buffer":0,"byteOffset":20232,"byteLength":960,"target":34962,"byteStride":8},{"buffer":0,"byteOffset":21192,"byteLength":288,"target":34963},{"buffer":0,"byteOffset":21480,"byteLength":1440,"target":34962,"byteStride":12},{"buffer":0,"byteOffset":22920,"byteLength":1440,"target":34962,"byteStride":12},{"buffer":0,"byteOffset":24360,"byteLength":960,"target":34962,"byteStride":8},{"buffer":0,"byteOffset":25320,"byteLength":288,"target":34963},{"buffer":0,"byteOffset":25608,"byteLength":1440,"target":34962,"byteStride":12},{"buffer":0,"byteOffset":27048,"byteLength":1440,"target":34962,"byteStride":12},{"buffer":0,"byteOffset":28488,"byteLength":960,"target":34962,"byteStride":8},{"buffer":0,"byteOffset":29448,"byteLength":288,"target":34963},{"buffer":0,"byteOffset":29736,"byteLength":288,"target":34962,"byteStride":12},{"buffer":0,"byteOffset":30024,"byteLength":288,"target":34962,"byteStride":12},{"buffer":0,"byteOffset":30312,"byteLength":192,"target":34962,"byteStride":8},{"buffer":0,"byteOffset":30504,"byteLength":72,"target":34963},{"buffer":0,"byteOffset":30576,"byteLength":288,"target":34962,"byteStride":12},{"buffer":0,"byteOffset":30864,"byteLength":288,"target":34962,"byteStride":12},{"buffer":0,"byteOffset":31152,"byteLength":192,"target":34962,"byteStride":8},{"buffer":0,"byteOffset":31344,"byteLength":72,"target":34963},{"buffer":0,"byteOffset":31416,"byteLength":288,"target":34962,"byteStride":12},{"buffer":0,"byteOffset":31704,"byteLength":288,"target":34962,"byteStride":12},{"buffer":0,"byteOffset":31992,"byteLength":192,"target":34962,"byteStride":8},{"buffer":0,"byteOffset":32184,"byteLength":72,"target":34963},{"buffer":0,"byteOffset":32256,"byteLength":288,"target":34962,"byteStride":12},{"buffer":0,"byteOffset":32544,"byteLength":288,"target":34962,"byteStride":12},{"buffer":0,"byteOffset":32832,"byteLength":192,"target":34962,"byteStride":8},{"buffer":0,"byteOffset":33024,"byteLength":72,"target":34963}],"buffers":[{"byteLength":33096,"uri":"data:application/octet-stream;base64,"}],"accessors":[{"bufferView":0,"componentType":5126,"count":120,"max":[1.875,5.625,1.875],"min":[-1.875,-0.625,-1.875],"type":"VEC3"},{"bufferView":1,"componentType":5126,"count":120,"max":[1,1,1],"min":[-1,-1,-1],"type":"VEC3"},{"bufferView":2,"componentType":5126,"count":120,"max":[0.640625,0.640625],"min":[0.2513827979564667,0],"type":"VEC2"},{"bufferView":3,"componentType":5123,"count":144,"max":[119],"min":[0],"type":"SCALAR"},{"bufferView":4,"componentType":5126,"count":24,"max":[3.125,2.8125,6.25],"min":[-3.125,2.1875,-6.25],"type":"VEC3"},{"bufferView":5,"componentType":5126,"count":24,"max":[1,1,1],"min":[-1,-1,-1],"type":"VEC3"},{"bufferView":6,"componentType":5126,"count":24,"max":[0.96875,0.578125],"min":[0,0],"type":"VEC2"},{"bufferView":7,"componentType":5123,"count":36,"max":[23],"min":[0],"type":"SCALAR"},{"bufferView":8,"componentType":5126,"count":120,"max":[1.5625,5.3125,1.5625],"min":[-1.5625,4.6875,-1.5625],"type":"VEC3"},{"bufferView":9,"componentType":5126,"count":120,"max":[1,1,1],"min":[-1,-1,-1],"type":"VEC3"},{"bufferView":10,"componentType":5126,"count":120,"max":[0.7892140746116638,0.359375],"min":[0.578125,0.125],"type":"VEC2"},{"bufferView":11,"componentType":5123,"count":144,"max":[119],"min":[0],"type":"SCALAR"},{"bufferView":12,"componentType":5126,"count":120,"max":[1.5625,5.3125,1.5625],"min":[-1.5625,4.6875,-1.5625],"type":"VEC3"},{"bufferView":13,"componentType":5126,"count":120,"max":[1,1,1],"min":[-1,-1,-1],"type":"VEC3"},{"bufferView":14,"componentType":5126,"count":120,"max":[0.7892140746116638,0.734375],"min":[0.4375,0.25],"type":"VEC2"},{"bufferView":15,"componentType":5123,"count":144,"max":[119],"min":[0],"type":"SCALAR"},{"bufferView":16,"componentType":5126,"count":120,"max":[1.5625,5.3125,1.5625],"min":[-1.5625,4.6875,-1.5625],"type":"VEC3"},{"bufferView":17,"componentType":5126,"count":120,"max":[1,1,1],"min":[-1,-1,-1],"type":"VEC3"},{"bufferView":18,"componentType":5126,"count":120,"max":[0.7735890746116638,0.71875],"min":[0.007660937495529652,0],"type":"VEC2"},{"bufferView":19,"componentType":5123,"count":144,"max":[119],"min":[0],"type":"SCALAR"},{"bufferView":20,"componentType":5126,"count":120,"max":[1.5625,5.3125,1.5625],"min":[-1.5625,4.6875,-1.5625],"type":"VEC3"},{"bufferView":21,"componentType":5126,"count":120,"max":[1,1,1],"min":[-1,-1,-1],"type":"VEC3"},{"bufferView":22,"componentType":5126,"count":120,"max":[0.7892140746116638,0.734375],"min":[0,0.59375],"type":"VEC2"},{"bufferView":23,"componentType":5123,"count":144,"max":[119],"min":[0],"type":"SCALAR"},{"bufferView":24,"componentType":5126,"count":120,"max":[1.5625,5.3125,1.5625],"min":[-1.5625,4.6875,-1.5625],"type":"VEC3"},{"bufferView":25,"componentType":5126,"count":120,"max":[1,1,1],"min":[-1,-1,-1],"type":"VEC3"},{"bufferView":26,"componentType":5126,"count":120,"max":[0.703125,0.765625],"min":[0.007660937495529652,0.59375],"type":"VEC2"},{"bufferView":27,"componentType":5123,"count":144,"max":[119],"min":[0],"type":"SCALAR"},{"bufferView":28,"componentType":5126,"count":120,"max":[1.5625,5.3125,1.5625],"min":[-1.5625,4.6875,-1.5625],"type":"VEC3"},{"bufferView":29,"componentType":5126,"count":120,"max":[1,1,1],"min":[-1,-1,-1],"type":"VEC3"},{"bufferView":30,"componentType":5126,"count":120,"max":[0.8204640746116638,0.765625],"min":[0.1875,0.640625],"type":"VEC2"},{"bufferView":31,"componentType":5123,"count":144,"max":[119],"min":[0],"type":"SCALAR"},{"bufferView":32,"componentType":5126,"count":24,"max":[3.125,7.5,0.3125],"min":[-3.125,2.5,-0.3125],"type":"VEC3"},{"bufferView":33,"componentType":5126,"count":24,"max":[1,1,1],"min":[-1,-1,-1],"type":"VEC3"},{"bufferView":34,"componentType":5126,"count":24,"max":[0.828125,0.453125],"min":[0,0],"type":"VEC2"},{"bufferView":35,"componentType":5123,"count":36,"max":[23],"min":[0],"type":"SCALAR"},{"bufferView":36,"componentType":5126,"count":24,"max":[2.1875,7.5,0.3125],"min":[-2.1875,2.5,-0.3125],"type":"VEC3"},{"bufferView":37,"componentType":5126,"count":24,"max":[1,1,1],"min":[-1,-1,-1],"type":"VEC3"},{"bufferView":38,"componentType":5126,"count":24,"max":[0.796875,0.8125],"min":[0,0.34375],"type":"VEC2"},{"bufferView":39,"componentType":5123,"count":36,"max":[23],"min":[0],"type":"SCALAR"},{"bufferView":40,"componentType":5126,"count":24,"max":[2.1875,7.5,0.3125],"min":[-2.1875,2.5,-0.3125],"type":"VEC3"},{"bufferView":41,"componentType":5126,"count":24,"max":[1,1,1],"min":[-1,-1,-1],"type":"VEC3"},{"bufferView":42,"componentType":5126,"count":24,"max":[0.796875,0.8125],"min":[0.125,0.34375],"type":"VEC2"},{"bufferView":43,"componentType":5123,"count":36,"max":[23],"min":[0],"type":"SCALAR"},{"bufferView":44,"componentType":5126,"count":24,"max":[2.5,8.125,0.3125],"min":[-2.5,1.875,-0.3125],"type":"VEC3"},{"bufferView":45,"componentType":5126,"count":24,"max":[1,1,1],"min":[-1,-1,-1],"type":"VEC3"},{"bufferView":46,"componentType":5126,"count":24,"max":[0.8125,0.8125],"min":[0.34375,0],"type":"VEC2"},{"bufferView":47,"componentType":5123,"count":36,"max":[23],"min":[0],"type":"SCALAR"}],"materials":[{"pbrMetallicRoughness":{"metallicFactor":0,"roughnessFactor":1,"baseColorTexture":{"index":0}},"alphaMode":"MASK","alphaCutoff":0.05,"doubleSided":true}],"textures":[{"sampler":0,"source":0,"name":"test_train.png"}],"samplers":[{"magFilter":9728,"minFilter":9728,"wrapS":33071,"wrapT":33071}],"images":[{"mimeType":"image/png","name":"test_train.png","uri":"test_train.png"}],"meshes":[{"primitives":[{"mode":4,"attributes":{"POSITION":0,"NORMAL":1,"TEXCOORD_0":2},"indices":3,"material":0}]},{"primitives":[{"mode":4,"attributes":{"POSITION":4,"NORMAL":5,"TEXCOORD_0":6},"indices":7,"material":0}]},{"primitives":[{"mode":4,"attributes":{"POSITION":8,"NORMAL":9,"TEXCOORD_0":10},"indices":11,"material":0}]},{"primitives":[{"mode":4,"attributes":{"POSITION":12,"NORMAL":13,"TEXCOORD_0":14},"indices":15,"material":0}]},{"primitives":[{"mode":4,"attributes":{"POSITION":16,"NORMAL":17,"TEXCOORD_0":18},"indices":19,"material":0}]},{"primitives":[{"mode":4,"attributes":{"POSITION":20,"NORMAL":21,"TEXCOORD_0":22},"indices":23,"material":0}]},{"primitives":[{"mode":4,"attributes":{"POSITION":24,"NORMAL":25,"TEXCOORD_0":26},"indices":27,"material":0}]},{"primitives":[{"mode":4,"attributes":{"POSITION":28,"NORMAL":29,"TEXCOORD_0":30},"indices":31,"material":0}]},{"primitives":[{"mode":4,"attributes":{"POSITION":32,"NORMAL":33,"TEXCOORD_0":34},"indices":35,"material":0}]},{"primitives":[{"mode":4,"attributes":{"POSITION":36,"NORMAL":37,"TEXCOORD_0":38},"indices":39,"material":0}]},{"primitives":[{"mode":4,"attributes":{"POSITION":40,"NORMAL":41,"TEXCOORD_0":42},"indices":43,"material":0}]},{"primitives":[{"mode":4,"attributes":{"POSITION":44,"NORMAL":45,"TEXCOORD_0":46},"indices":47,"material":0}]}]}