{"asset":{"version":"2.0","generator":"Blockbench 4.12.5 glTF exporter"},"scenes":[{"nodes":[1],"name":"blockbench_export"}],"scene":0,"nodes":[{"rotation":[0,-0.3826834323650898,0,0.9238795325112867],"translation":[1.40625,-5,-1.40625],"name":"cube","mesh":0},{"children":[0]}],"bufferViews":[{"buffer":0,"byteOffset":0,"byteLength":2016,"target":34962,"byteStride":12},{"buffer":0,"byteOffset":2016,"byteLength":2016,"target":34962,"byteStride":12},{"buffer":0,"byteOffset":4032,"byteLength":1344,"target":34962,"byteStride":8},{"buffer":0,"byteOffset":5376,"byteLength":504,"target":34963}],"buffers":[{"byteLength":5880,"uri":"data:application/octet-stream;base64,"}],"accessors":[{"bufferView":0,"componentType":5126,"count":168,"max":[6.187754154205322,1.875,5],"min":[-6.187754154205322,0,-5],"type":"VEC3"},{"bufferView":1,"componentType":5126,"count":168,"max":[1,1,1],"min":[-1,-1,-1],"type":"VEC3"},{"bufferView":2,"componentType":5126,"count":168,"max":[1,1],"min":[0,0],"type":"VEC2"},{"bufferView":3,"componentType":5123,"count":252,"max":[167],"min":[0],"type":"SCALAR"}],"materials":[{"pbrMetallicRoughness":{"metallicFactor":0,"roughnessFactor":1,"baseColorTexture":{"index":0}},"alphaMode":"MASK","alphaCutoff":0.05,"doubleSided":true}],"textures":[{"sampler":0,"source":0,"name":"track_turn"}],"samplers":[{"magFilter":9728,"minFilter":9728,"wrapS":33071,"wrapT":33071}],"images":[{"mimeType":"image/png","name":"track_turn.png","uri":"track_turn.png"}],"meshes":[{"primitives":[{"mode":4,"attributes":{"POSITION":0,"NORMAL":1,"TEXCOORD_0":2},"indices":3,"material":0}]}]}